<?xml version="1.0" encoding="UTF-8"?>
<svg width="280px" height="74px" viewBox="0 0 280 74" version="1.1" xmlns="http://www.w3.org/2000/svg" xmlns:xlink="http://www.w3.org/1999/xlink">
    <title>blanc100 logo</title>
    <defs></defs>
    <g id="Page-1" stroke="none" stroke-width="1" fill="none" fill-rule="evenodd">
        <g id="blanc100-logo">
            <g id="Group">
                <path d="M175.192289,68.6129358 C177.175904,68.2463303 177.499759,65.8837615 177.499759,65.8837615 C177.823614,62.5843119 175.435181,62.5843119 175.435181,62.5843119 L171.184578,62.5843119 L171.184578,73.4195413 L172.763373,73.4195413 L172.844337,68.7758716 L173.046747,68.6536697 L176.487711,73.4195413 L178.592771,73.4195413 L175.192289,68.6129358 L175.192289,68.6129358 Z M172.965783,67.2687156 L172.965783,64.2136697 L174.888675,64.2136697 C174.888675,64.2136697 175.556627,64.3766055 175.556627,65.7411927 C175.556627,65.7411927 175.63759,66.983578 174.726747,67.1057798 L172.965783,67.2687156 L172.965783,67.2687156 Z" id="Shape" fill="#BD2126"></path>
                <path d="M37.2703614,62.4247706 L31.8053012,62.4247706 L31.8053012,73.4195413 L38.0395181,73.2090826 C40.8327711,72.7440367 41.2780723,68.1546789 41.2780723,68.1546789 C41.0756627,62.0887156 37.2703614,62.4247706 37.2703614,62.4247706 L37.2703614,62.4247706 Z M37.4322892,71.9123853 L33.6674699,72.116055 L33.6674699,64.2544037 L37.3918072,64.2544037 C37.3918072,64.2544037 39.3349398,64.9061468 39.3349398,67.9204587 C39.3349398,67.9204587 39.6587952,70.8533028 37.4322892,71.9123853 L37.4322892,71.9123853 Z" id="Shape" fill="#BD2126"></path>
                <path d="M22.1301205,62.0174312 L16.9484337,73.26 L18.8915663,73.4229358 L19.9440964,70.7344954 L24.3971084,70.8974312 L25.2472289,73.4229358 L27.3522892,73.26 L22.1301205,62.0174312 L22.1301205,62.0174312 Z M20.5513253,69.5633945 L22.1503614,65.8566055 L23.7493976,69.5633945 L20.5513253,69.5633945 L20.5513253,69.5633945 Z" id="Shape" fill="#BD2126"></path>
                <path d="M215.809157,40.3333945 C207.119036,40.3333945 200.071807,33.0318349 200.071807,24.029633 C200.071807,15.0240367 207.119036,7.72247706 215.809157,7.72247706 C220.70747,7.72247706 225.082892,10.0409174 227.967229,13.676422 L233.266988,10.2513761 C229.131084,5.00348624 222.697831,1.6293578 215.471807,1.6293578 C202.996627,1.6293578 192.882892,11.6838532 192.882892,24.083945 C192.882892,36.4840367 202.996627,46.5385321 215.471807,46.5385321 C222.626988,46.5385321 229.006265,43.2322936 233.142169,38.0692661 L227.943614,34.41 C225.055904,38.0251376 220.693976,40.3333945 215.809157,40.3333945 L215.809157,40.3333945 Z" id="Shape" fill="#000000"></path>
                <path d="M107.708916,0.434495413 L88.1966265,45.9852294 L95.1595181,45.9852294 L98.7219277,37.4107339 L116.291084,37.6551376 L119.529639,45.9852294 L126.978313,45.9852294 L107.708916,0.434495413 L107.708916,0.434495413 Z M101.211566,31.6876147 L107.58747,16.5345872 L113.781205,31.6876147 L101.211566,31.6876147 L101.211566,31.6876147 Z" id="Shape" fill="#000000"></path>
                <path d="M22.5551807,22.583578 C29.3561446,19.4063303 28.566747,12.3797248 28.566747,12.3797248 C27.5344578,3.52009174 19.1546988,2.33880734 19.1546988,2.33880734 L0.350843373,2.33880734 L0.172048193,45.9852294 L20.9763855,45.9852294 C29.659759,43.7244954 30.266988,34.9870642 30.266988,34.9870642 C31.906506,27.1050459 22.5551807,22.583578 22.5551807,22.583578 L22.5551807,22.583578 Z M6.86843373,8.57449541 L18.0414458,8.57449541 C18.0414458,8.57449541 22.2110843,9.34844037 21.9681928,14.3179817 C21.9681928,14.3179817 22.3325301,19.8170642 18.0819277,20.6724771 L6.86843373,20.6724771 L6.86843373,8.57449541 L6.86843373,8.57449541 Z M19.5392771,40.363945 L6.8346988,40.363945 L6.8346988,26.1274312 L19.4920482,26.1274312 C19.4920482,26.1274312 24.2149398,27.037156 23.9416867,32.8858716 C23.9416867,32.8858716 24.353253,39.3591743 19.5392771,40.363945 L19.5392771,40.363945 Z" id="Shape" fill="#000000"></path>
                <polygon id="Shape" fill="#000000" points="46.3585542 2.34220183 53.1595181 2.34220183 53.1595181 39.6918349 72.226506 39.6918349 72.226506 45.9886239 46.3585542 45.9886239"></polygon>
                <polygon id="Shape" fill="#000000" points="142.968675 45.9886239 143.029398 1.38155963 171.083373 30.8966972 171.083373 2.60697248 177.398554 2.54247706 177.398554 47.2717431 149.223133 17.6955046 149.16241 45.9886239"></polygon>
                <path d="M256.719518,0.312293578 C252.937831,0.312293578 249.871325,3.49293578 249.871325,7.41357798 C249.871325,11.3376147 252.937831,14.5182569 256.719518,14.5182569 C260.497831,14.5182569 263.564337,11.3376147 263.564337,7.41357798 C263.564337,3.49293578 260.497831,0.312293578 256.719518,0.312293578 L256.719518,0.312293578 Z M256.719518,11.7076147 C254.445783,11.7076147 252.603855,9.78633028 252.603855,7.41357798 C252.603855,5.04422018 254.445783,3.12293578 256.719518,3.12293578 C258.98988,3.12293578 260.831807,5.04422018 260.831807,7.41357798 C260.831807,9.78633028 258.98988,11.7076147 256.719518,11.7076147 L256.719518,11.7076147 Z" id="Shape" fill="#000000"></path>
                <path d="M272.93253,0.312293578 C269.150843,0.312293578 266.084337,3.49293578 266.084337,7.41357798 C266.084337,11.3376147 269.150843,14.5182569 272.93253,14.5182569 C276.710843,14.5182569 279.777349,11.3376147 279.777349,7.41357798 C279.777349,3.49293578 276.710843,0.312293578 272.93253,0.312293578 L272.93253,0.312293578 Z M272.93253,11.7076147 C270.658795,11.7076147 268.816867,9.78633028 268.816867,7.41357798 C268.816867,5.04422018 270.658795,3.12293578 272.93253,3.12293578 C275.202892,3.12293578 277.044819,5.04422018 277.044819,7.41357798 C277.044819,9.78633028 275.202892,11.7076147 272.93253,11.7076147 L272.93253,11.7076147 Z" id="Shape" fill="#000000"></path>
                <polygon id="Shape" fill="#000000" points="243.404337 3.64568807 240.125301 3.64568807 241.764819 0.434495413 246.804819 0.434495413 246.804819 14.2738532 243.46506 14.2738532"></polygon>
                <polygon id="Shape" fill="#BD2126" points="0.512771084 73.26 2.98216867 62.0174312 6.78746988 70.3237615 10.7142169 62.3399083 13.426506 73.4229358 11.5238554 73.4229358 10.3903614 67.0243119 7.3946988 73.4229358 6.54457831 73.4229358 3.42746988 66.942844 2.2939759 73.4229358"></polygon>
                <polygon id="Shape" fill="#BD2126" points="46.6216867 62.4213761 52.9773494 62.4213761 52.9773494 64.0948624 48.4433735 64.2577982 48.5243373 66.7391743 52.9773494 66.7391743 52.9773494 68.45 48.5243373 68.45 48.5648193 72.116055 52.9773494 72.116055 52.9773494 73.4229358 46.6216867 73.4229358"></polygon>
                <rect id="Rectangle-path" fill="#BD2126" x="66.6096386" y="62.4858716" width="1.73060241" height="10.9370642"></rect>
                <polygon id="Shape" fill="#BD2126" points="74.2708434 73.4229358 74.2708434 62.1769725 82.6101205 70.0793578 82.6101205 62.4858716 84.4722892 62.4858716 84.4722892 73.4229358 83.2578313 73.4229358 75.9306024 66.0059633 76.0115663 73.4229358"></polygon>
                <polygon id="Shape" fill="#BD2126" points="207.638554 73.5688991 207.638554 62.3263303 215.977831 70.2287156 215.977831 62.6318349 217.84 62.6318349 217.84 73.5688991 216.625542 73.5688991 209.298313 66.1553211 209.379277 73.5688991"></polygon>
                <path d="M99.1672289,70.9788991 C99.1672289,70.9788991 100.826988,73.7488073 102.851084,71.3047706 C102.851084,71.3047706 103.660723,69.3902752 101.191325,68.8607339 C101.191325,68.8607339 96.0501205,67.2721101 98.7624096,63.1172477 C98.7624096,63.1172477 102.000964,60.9583486 104.308434,63.9726606 L103.17494,64.8280734 C103.17494,64.8280734 100.786506,62.6284404 99.7744578,64.7466055 C99.7744578,64.7466055 99.1672289,66.579633 102.97253,67.6387156 C102.97253,67.6387156 106.13012,69.0440367 104.065542,72.3129358 C104.065542,72.3129358 103.458313,74.033945 100.057831,73.8710092 C100.057831,73.8710092 98.7624096,73.7895413 97.5479518,71.5899083 L99.1672289,70.9788991 L99.1672289,70.9788991 Z" id="Shape" fill="#BD2126"></path>
                <polygon id="Shape" fill="#BD2126" points="110.664096 62.7913761 113.335904 69.593945 116.048193 62.0174312 119.043855 69.593945 121.432289 62.6657798 123.456386 62.6250459 119.57012 73.4229358 118.760482 73.4229358 116.007711 66.4133028 113.416867 73.4229358 112.971566 73.4229358 108.801928 62.5469725 110.562892 62.3670642"></polygon>
                <rect id="Rectangle-path" fill="#BD2126" x="128.192771" y="62.3399083" width="1.65975904" height="11.079633"></rect>
                <polygon id="Shape" fill="#BD2126" points="142.320964 62.3399083 134.588916 62.3399083 134.588916 64.0948624 137.706024 64.0948624 137.706024 73.4195413 139.365783 73.4195413 139.365783 64.0948624 142.320964 64.0948624"></polygon>
                <polygon id="Shape" fill="#BD2126" points="146.895422 62.3399083 154.506024 62.3399083 148.919518 72.0753211 154.506024 72.0753211 154.506024 73.4229358 146.166747 73.4229358 151.672289 64.0948624 146.976386 64.0948624"></polygon>
                <polygon id="Shape" fill="#BD2126" points="159.444819 62.5877064 165.638554 62.5877064 165.638554 64.1729358 161.306988 64.1729358 161.34747 66.9055046 165.638554 66.9055046 165.638554 68.3719266 161.266506 68.3719266 161.266506 71.9972477 165.638554 71.9972477 165.638554 73.4229358 159.444819 73.4229358"></polygon>
                <polygon id="Shape" fill="#BD2126" points="183.248193 62.5877064 183.248193 73.4229358 189.158554 73.4229358 189.158554 72.1601835 184.907952 72.1601835 184.907952 62.5877064"></polygon>
                <path d="M197.740723,61.9631193 L192.559036,73.2056881 L194.502169,73.3686239 L195.554699,70.6801835 L200.007711,70.8431193 L200.857831,73.3686239 L202.962892,73.2056881 L197.740723,61.9631193 L197.740723,61.9631193 Z M196.161928,69.5090826 L197.760964,65.8022936 L199.36,69.5090826 L196.161928,69.5090826 L196.161928,69.5090826 Z" id="Shape" fill="#BD2126"></path>
                <path d="M228.921928,62.4519266 L223.456867,62.4519266 L223.456867,73.4466972 L229.691084,73.2362385 C232.484337,72.7711927 232.929639,68.1818349 232.929639,68.1818349 C232.727229,62.1158716 228.921928,62.4519266 228.921928,62.4519266 L228.921928,62.4519266 Z M229.083855,71.9395413 L225.319036,72.143211 L225.319036,64.2815596 L229.043373,64.2815596 C229.043373,64.2815596 230.986506,64.9333028 230.986506,67.9476147 C230.986506,67.9476147 231.310361,70.8804587 229.083855,71.9395413 L229.083855,71.9395413 Z" id="Shape" fill="#BD2126"></path>
            </g>
        </g>
    </g>
</svg>