<svg width="64" height="64" viewBox="0 0 64 64" xmlns="http://www.w3.org/2000/svg"><title>youku</title><desc>Created with Sketch.</desc><path d="M35.222 42.677c.41-.52.79-2.152.79-3.418v-.381h-.886v1.954c.007 1.808.015 1.954.095 1.844zm3.081-.249l-.198-.388-.015-1.581-.015-1.581h-.527v.439c0 1.31-.366 3.052-.834 3.989-.263.534-.256.534-.966.124l-.622-.359v1.471h5.189v-1.039l-.498-.073c-.79-.11-1.208-.388-1.515-1.003zm1.303-2.378c0 1.654.073 1.954.52 2.049l.19.037v-3.249h-.71v1.164zm-4.479 6.799c0 .834.066 1.076.315 1.229.176.11.315.117 2.269.117 2.269 0 2.393-.015 2.539-.329.037-.088.066-.468.066-.907v-.768h-5.189v.659zm2.949-10.685v-.944h-.534v1.888h.534v-.944zm.454-17.484c.044-2.115.051-2.188.19-2.459.139-.3.359-.49.71-.622.322-.117 1.09-.073 1.412.095.315.161.571.512.651.893.037.168.066.988.066 1.895l.007 1.603 2.108-2.137c1.493-1.508 2.181-2.174 2.371-2.261.139-.073.432-.139.629-.161.315-.022.41-.007.688.132.607.293.966.915.9 1.537-.015.176-.11.468-.22.681-.205.395-.256.454-2.049 2.137-.564.527-1.017.981-1.017 1.017 0 .029.717.717 1.588 1.53 1.815 1.676 1.881 1.756 1.925 2.532.044.754-.205 1.186-.834 1.427-.381.146-.988.102-1.354-.088-.154-.081-1.251-1.054-2.481-2.203-1.215-1.127-2.225-2.049-2.247-2.049-.015 0-.029.746-.029 1.669 0 2.13-.066 2.386-.666 2.715-.205.102-.344.132-.834.132-.52 0-.629-.015-.886-.154-.242-.124-.322-.205-.468-.498l-.176-.351-.015-2.415c-.007-1.325.007-3.396.029-4.596zm-17.198-3.513c.71-.161 1.72-.117 2.444.095 1.895.556 3.323 2.064 3.871 4.091.183.659.22 1.976.081 2.781-.198 1.229-.666 2.203-1.405 2.986-1.01 1.054-2.254 1.559-3.901 1.566-1.588.007-2.81-.468-3.828-1.471-1.976-1.976-2.254-5.416-.622-7.772.805-1.164 2.005-1.983 3.359-2.276zm9.763 20.477c.037.059-.176.322-.849 1.047l-.468.498-1.025-.878c-.564-.483-1.251-1.068-1.53-1.288l-.585-.476c-.066-.059.015-.183.498-.725.315-.359.593-.651.622-.651.11-.015 3.249 2.327 3.337 2.474zm-21.297-4.816c-.944-.278-1.369-1.017-1.127-1.954.051-.198.468-1.186.922-2.203s.827-1.874.827-1.91c0-.044-.966-1.72-2.137-3.74-2.313-3.937-2.342-4.003-2.261-4.676.066-.564.483-1.039 1.09-1.259.556-.205 1.127-.044 1.603.439.256.256.629.864 1.83 2.927.827 1.434 1.515 2.605 1.537 2.613.015 0 .49-1.025 1.054-2.291.564-1.259 1.12-2.496 1.244-2.759.461-.981 1.076-1.222 2.108-.834.454.168.812.512.922.893.11.373.11.578.007.988-.11.417-5.694 12.778-5.928 13.107-.468.681-.966.878-1.691.659zm21.904 17.176c-.227.878-.681 1.427-1.398 1.676-.373.132-.476.139-1.866.139-1.383 0-1.5-.007-1.866-.139-.717-.249-1.083-.717-1.222-1.552-.044-.234-.066-1.947-.066-4.581v-4.201h-.198c-.227 0-.205-.066-.329 1.003-.102.827-.337 1.983-.564 2.766-.681 2.32-1.822 4.23-3.871 6.455l-.381.41-.79-.593-.798-.593-.015.593-.015.585h-2.115l-.015-4.12-.015-4.12-.49.681-.571.805c-.073.11-.124.073-.776-.498l-.805-.71c-.117-.095-.11-.11.381-.798 1.61-2.254 2.913-4.859 3.747-7.494.124-.403.227-.725.234-.725.044-.007 1.947.725 1.983.761.11.102-.651 2.393-1.229 3.703l-.322.717v10.29l.446-.439c1.464-1.442 2.744-3.447 3.293-5.145.307-.937.622-2.62.622-3.301v-.227h-3.601l.015-.9.015-.893 1.808-.015 1.815-.015.015-2.261.015-2.254 1.076-.015 1.076-.015v4.537h6.601v1.83h-4.128v4.084c0 3.776.007 4.106.102 4.296.161.329.41.424 1.047.395.622-.029.864-.139 1.025-.461.11-.212.249-1.186.329-2.32.022-.293.059-.571.073-.622.029-.081.161-.059 1.032.19.549.161 1.01.3 1.025.322.081.029-.205 2.298-.329 2.766zm-1.764-22.014c-.461-.278-1.068-.929-1.288-1.398-.102-.198-.242-.593-.315-.871-.139-.49-.139-.564-.139-3.776 0-3.044.007-3.293.11-3.593.124-.366.468-.739.754-.827.102-.037.403-.051.651-.044.593.015.878.198 1.134.717l.176.351.029 3.242.029 3.242.154.329c.227.468.52.776.951.973.322.139.446.168.9.168.483.007.564-.015.929-.19.446-.22.71-.483.922-.959l.154-.322.037-3.184c.029-3.169.044-3.323.249-3.718.278-.534.981-.783 1.639-.593.381.11.666.366.842.746.124.256.124.337.124 3.659 0 3.366 0 3.396-.132 3.864-.417 1.442-1.369 2.327-2.883 2.715-1.742.446-3.769.227-5.028-.534zm12.251 16.913c-.022 6.44 0 6.067-.432 6.499-.439.439-.549.461-3.667.483-3.462.037-3.981-.022-4.413-.498-.366-.395-.344-.007-.366-6.433l-.015-5.847h2.715v-1.888h-2.715v-1.83h8.907v1.83h-2.598l.015.922.015.929 1.288.015 1.288.015-.022 5.804zm8.958 2.679c-.022 3.476-.015 3.41-.424 3.828-.19.19-.329.263-.651.351-.373.102-.622.11-2.825.11-2.196 0-2.452-.015-2.825-.11-.476-.132-.864-.454-.988-.834-.059-.176-.081-.995-.095-3.352l-.022-3.11h7.853l-.022 3.118zm.432-4.113l-4.376-.015-4.384-.015-.015-.871-.015-.864h3.601l-.015-1.2-.015-1.193-.864-.015-.864-.015-.227.929c-.117.512-.227.937-.234.951-.007.015-.388-.051-.849-.139-.644-.117-.834-.176-.834-.249 0-.044.095-.512.205-1.025.271-1.2.542-2.81.593-3.52l.044-.549.388.037c.212.015.637.044.937.073l.542.044v.183c0 .102-.044.446-.088.776l-.088.688c0 .095.073.102.681.102h.681v-2.532h2.013v2.532l1.317.015 1.31.015.015.834.015.842h-2.657v2.415h3.184v1.764zm6.733-17.747c-.212.768-.534 1.339-1.039 1.808-.227.22-.564.476-.732.564-.776.417-1.837.644-3.052.637-2.554-.007-4.142-.995-4.698-2.927-.139-.468-.139-.498-.139-3.864v-3.388l.139-.3c.168-.366.395-.593.695-.703.132-.044.388-.081.593-.088.439 0 .871.198 1.076.498.322.49.322.461.359 3.93l.029 3.213.154.322c.198.41.527.739.937.937.278.132.403.154.886.154s.607-.022.893-.161c.424-.198.79-.564.988-.988l.154-.329.037-3.213c.037-3.608.022-3.506.468-3.959.315-.315.717-.446 1.156-.381.527.073.864.329 1.098.834l.139.293v3.301c0 3.279 0 3.315-.139 3.813zm-37.419-.183c1.171 1.098 2.818.688 3.63-.893.322-.637.439-1.866.256-2.605-.234-.929-.82-1.713-1.522-2.035-.893-.417-1.764-.227-2.503.542-1.244 1.325-1.178 3.762.139 4.991zm24.905 24.575c.285.095 2.605.095 2.891 0 .388-.132.41-.249.41-2.21v-1.72h-3.718v1.72c.007 1.961.029 2.078.417 2.21z"/></svg>