<?xml version="1.0" standalone="no"?>
<!DOCTYPE svg PUBLIC "-//W3C//DTD SVG 20010904//EN"
 "http://www.w3.org/TR/2001/REC-SVG-20010904/DTD/svg10.dtd">
<svg version="1.0" xmlns="http://www.w3.org/2000/svg"
 width="3695.000000pt" height="1021.000000pt" viewBox="0 0 3695.000000 1021.000000"
 preserveAspectRatio="xMidYMid meet">
<metadata>
Created by potrace 1.16, written by Peter Selinger 2001-2019
</metadata>
<g transform="translate(0.000000,1021.000000) scale(0.100000,-0.100000)"
fill="#000000" stroke="none">
<path d="M11273 10175 c-29 -29 -33 -41 -39 -106 -3 -41 -10 -79 -15 -86 -7
-7 -6 -14 1 -18 5 -3 10 -11 10 -16 0 -6 -4 -7 -10 -4 -6 4 -10 -5 -10 -19 0
-14 6 -26 13 -26 8 0 9 -3 1 -8 -16 -10 -45 -148 -49 -237 -3 -63 -17 -139
-27 -146 -12 -8 -38 -106 -38 -146 0 -17 -6 -38 -14 -45 -7 -8 -18 -38 -24
-68 -28 -140 -54 -237 -73 -273 -5 -10 -15 -54 -21 -97 -6 -44 -15 -80 -20
-80 -4 0 -8 -8 -8 -18 0 -10 -4 -22 -9 -27 -11 -13 -31 -96 -31 -129 0 -14
-11 -46 -25 -71 -13 -26 -27 -63 -31 -83 -3 -21 -12 -51 -19 -67 -8 -17 -15
-41 -17 -55 -2 -14 -9 -34 -15 -45 -6 -11 -14 -41 -18 -67 -4 -27 -11 -48 -16
-48 -4 0 -11 -16 -15 -35 -3 -19 -10 -38 -15 -41 -5 -3 -9 -18 -9 -35 0 -16
-9 -46 -20 -66 -11 -21 -20 -52 -20 -70 0 -17 -4 -34 -9 -37 -5 -4 -12 -24
-16 -45 -3 -22 -13 -47 -20 -58 -8 -10 -15 -32 -15 -50 0 -17 -4 -34 -9 -37
-5 -4 -15 -29 -22 -56 -7 -28 -16 -50 -20 -50 -4 0 -10 -15 -14 -32 -9 -45
-39 -132 -46 -138 -4 -3 -10 -25 -14 -50 -4 -25 -11 -50 -16 -56 -10 -12 -49
-133 -49 -154 0 -8 -9 -33 -20 -55 -11 -22 -19 -50 -20 -62 0 -13 -4 -23 -10
-23 -5 0 -10 -10 -10 -23 0 -12 -9 -48 -20 -80 -11 -31 -20 -62 -20 -69 0 -7
-18 -51 -41 -97 -22 -46 -44 -105 -49 -130 -15 -77 -40 -165 -49 -171 -4 -3
-18 -36 -30 -75 -13 -38 -29 -83 -36 -100 -7 -16 -16 -49 -20 -72 -4 -24 -11
-45 -16 -49 -5 -3 -9 -12 -9 -20 0 -8 -9 -34 -19 -57 -10 -23 -27 -69 -36
-102 -10 -33 -21 -69 -26 -80 -4 -11 -13 -39 -19 -62 -6 -23 -15 -45 -20 -48
-6 -3 -10 -15 -10 -26 0 -10 -4 -19 -9 -19 -5 0 -15 -40 -22 -90 -6 -49 -15
-90 -20 -90 -4 0 -11 -10 -15 -22 -4 -13 -10 -25 -15 -28 -5 -3 -14 -39 -21
-80 -7 -41 -15 -77 -18 -80 -18 -17 -33 -61 -38 -114 -3 -36 -17 -87 -34 -123
-15 -34 -28 -73 -28 -87 0 -14 -11 -55 -24 -92 -14 -37 -23 -71 -20 -75 2 -4
0 -10 -5 -13 -5 -3 -12 -30 -16 -59 -8 -66 -35 -157 -46 -157 -5 0 -9 -15 -9
-32 0 -18 -10 -67 -21 -108 -12 -41 -23 -86 -25 -100 -2 -14 -10 -52 -18 -85
-16 -65 -35 -188 -43 -275 -3 -30 -9 -60 -13 -65 -15 -18 -29 -299 -26 -480 4
-198 28 -395 47 -395 5 0 9 -10 9 -22 1 -41 36 -160 51 -169 8 -5 11 -9 7 -9
-32 -1 150 -227 207 -257 17 -9 35 -22 40 -28 6 -7 22 -15 36 -19 14 -3 42
-16 61 -30 20 -13 56 -28 82 -34 108 -23 345 -9 371 23 6 6 33 15 60 19 69 10
155 35 155 45 0 10 91 51 112 51 8 0 21 9 31 20 9 11 26 20 37 20 27 0 90 26
104 44 6 7 27 19 46 26 19 7 44 21 55 30 11 9 39 22 63 29 24 7 53 23 64 37
12 13 40 29 62 35 23 6 48 17 56 25 64 61 127 104 153 104 9 0 35 18 57 40 23
23 64 56 93 74 29 19 61 43 71 55 11 11 25 21 33 21 8 0 25 11 38 24 13 14 33
27 43 30 10 4 45 31 76 62 32 30 61 53 64 49 3 -3 -3 -12 -14 -19 -18 -14 -18
-15 -1 -22 22 -8 29 -2 31 30 1 25 15 32 55 26 8 -1 30 13 48 32 71 69 79 75
98 82 11 3 25 16 30 28 6 13 15 23 21 23 7 0 33 21 59 48 26 26 53 47 59 47 6
0 22 12 35 25 13 14 27 25 32 25 5 0 9 6 9 14 0 15 27 30 48 27 6 -1 12 7 12
17 0 19 68 82 103 95 9 3 17 16 17 27 0 11 3 19 8 18 13 -4 53 23 47 33 -4 5
-3 9 2 9 10 0 83 66 83 75 0 11 164 164 174 162 5 -1 10 5 11 13 0 8 11 20 25
27 14 7 24 17 23 22 -1 5 17 26 40 47 23 22 48 52 56 67 8 15 30 37 48 48 18
11 33 25 33 30 0 5 5 9 10 9 13 0 80 66 74 73 -3 2 1 7 9 10 11 4 16 -9 21
-56 3 -33 10 -63 15 -66 12 -9 41 -68 41 -86 0 -8 5 -15 10 -15 6 0 14 -8 17
-17 4 -10 23 -31 42 -48 19 -16 42 -37 52 -47 9 -9 26 -19 38 -23 12 -3 21
-11 21 -16 0 -5 7 -9 15 -9 7 0 18 -7 23 -16 23 -41 272 -59 385 -28 34 10 64
20 67 24 3 3 29 16 58 29 29 12 64 32 78 44 14 12 35 26 47 32 48 22 192 134
273 212 47 46 89 83 93 83 5 0 44 36 87 81 44 45 85 86 93 93 7 6 46 43 87 81
40 39 89 84 109 100 20 17 63 56 96 88 32 31 59 53 59 47 0 -5 6 -7 14 -4 8 3
13 11 11 17 -2 7 12 25 31 41 l35 29 16 -22 c28 -41 84 -85 128 -102 24 -9 51
-24 60 -33 9 -9 20 -14 25 -11 5 3 11 1 14 -4 4 -5 24 -12 46 -16 22 -4 46
-12 53 -18 6 -7 57 -23 112 -36 55 -13 109 -29 120 -36 11 -7 38 -15 60 -19
51 -9 148 -39 155 -47 7 -9 59 -17 175 -29 55 -6 114 -12 130 -14 17 -3 57 -6
90 -7 33 -1 62 -5 65 -9 23 -34 946 -34 970 0 3 4 66 15 140 25 74 9 152 19
173 22 20 3 37 9 37 13 0 4 17 10 38 13 81 12 185 38 205 52 12 7 48 18 80 24
31 6 66 15 76 21 11 5 29 10 40 10 10 0 21 3 23 8 3 8 135 52 156 52 6 0 12 4
12 9 0 5 34 19 75 32 41 12 75 26 75 31 0 4 8 8 18 8 10 0 22 4 28 8 5 5 31
17 59 27 27 10 58 26 69 36 11 10 34 23 53 30 18 6 33 14 33 19 0 4 21 19 48
31 26 13 67 35 91 50 24 16 56 31 72 34 16 4 29 11 29 16 0 6 21 20 47 31 26
11 52 26 58 32 6 6 29 20 51 31 21 11 43 26 47 32 4 7 13 13 19 13 20 0 100
42 122 64 19 19 21 19 24 3 2 -10 -1 -23 -6 -30 -5 -7 -15 -52 -21 -102 -12
-89 -26 -151 -41 -190 -5 -11 -11 -45 -14 -75 -8 -68 -27 -152 -38 -165 -11
-12 -10 -158 0 -170 5 -6 15 -29 22 -52 7 -24 17 -43 21 -43 4 0 16 -13 26
-30 9 -16 23 -30 29 -30 7 0 19 -6 26 -13 32 -31 89 -48 166 -48 89 0 100 3
165 47 69 47 121 106 137 153 7 23 22 47 31 52 10 5 26 25 35 44 9 19 20 35
25 35 5 0 18 18 29 40 11 22 25 40 30 40 6 0 10 6 10 13 0 8 9 22 20 32 11 10
20 22 20 27 0 5 9 18 20 30 11 12 20 29 20 38 0 9 13 26 30 38 16 12 39 42 50
66 11 25 29 47 40 51 11 3 20 14 20 24 0 9 15 31 33 49 17 17 42 43 54 59 68
86 98 120 118 133 12 8 42 38 66 65 50 55 152 164 169 180 38 34 90 91 90 98
0 10 41 46 52 47 15 0 105 81 201 179 34 35 98 95 141 134 74 65 80 68 87 48
5 -11 13 -21 18 -21 5 0 17 -13 28 -29 19 -31 113 -140 148 -174 11 -10 93
-89 181 -175 183 -177 254 -242 269 -242 6 0 17 -9 25 -20 8 -11 21 -20 28
-20 8 0 37 -24 65 -53 29 -29 72 -62 97 -74 25 -12 61 -35 79 -52 18 -17 44
-34 57 -37 13 -3 24 -10 24 -16 0 -5 25 -20 55 -33 30 -14 55 -29 55 -35 0 -5
23 -19 50 -31 28 -12 50 -25 50 -29 0 -5 21 -16 46 -26 25 -9 61 -30 81 -46
20 -15 44 -28 53 -28 10 0 29 -9 43 -20 14 -11 31 -20 39 -20 7 0 23 -6 34
-14 11 -8 41 -17 67 -21 26 -4 47 -11 47 -16 0 -5 11 -9 24 -9 14 0 27 -4 30
-9 3 -5 36 -16 73 -26 38 -9 77 -21 87 -27 10 -5 44 -12 75 -14 31 -2 81 -6
111 -9 206 -21 738 -26 1115 -11 94 4 299 10 456 14 189 5 291 11 300 18 8 7
59 12 124 13 140 2 534 19 600 27 82 9 165 26 165 34 0 8 105 20 217 24 73 3
163 24 163 38 0 4 26 8 58 8 31 0 100 9 152 21 52 11 116 23 143 26 26 3 47 9
47 14 0 4 17 11 38 14 73 12 172 37 172 44 0 4 37 13 82 20 45 7 94 21 108 31
14 10 37 18 50 18 32 -1 169 39 196 57 20 13 52 21 124 30 19 2 50 9 68 14
l32 10 2 -82 c0 -45 1 -89 0 -97 -2 -42 31 -185 48 -207 10 -13 24 -40 30 -59
6 -19 16 -34 20 -34 5 0 7 -6 4 -13 -2 -7 3 -23 13 -34 10 -12 34 -43 53 -69
46 -61 125 -144 138 -144 6 0 13 -8 16 -17 5 -16 22 -28 96 -70 14 -8 39 -23
55 -33 46 -30 99 -53 163 -71 23 -7 42 -16 42 -21 0 -4 11 -8 24 -8 14 0 27
-4 30 -8 3 -5 80 -14 173 -21 92 -7 176 -17 185 -22 24 -12 308 -12 308 1 0 6
9 10 20 10 11 0 20 -5 20 -11 0 -7 11 -9 33 -5 59 12 303 42 427 52 30 3 64 9
75 14 25 12 165 38 270 50 44 6 94 17 111 25 18 8 52 15 76 15 23 0 61 5 83
11 22 6 54 13 70 16 17 3 35 9 41 14 6 5 46 14 90 19 96 13 175 30 189 40 6 4
55 13 110 20 55 6 121 18 147 26 26 8 74 14 107 14 34 0 61 4 61 9 0 5 39 12
87 16 48 4 111 13 140 21 30 8 82 14 116 14 35 0 68 5 74 11 11 11 170 29 256
28 31 -1 61 2 67 6 7 4 52 7 101 6 58 -1 100 3 124 13 19 8 35 11 35 7 0 -10
263 -1 270 9 3 4 73 10 155 14 83 4 182 11 220 17 39 5 100 13 138 16 37 3 67
9 67 13 0 8 84 19 143 20 15 1 27 5 27 10 0 6 22 10 50 10 36 0 52 5 59 17 9
17 11 17 23 0 13 -17 15 -17 27 -3 8 9 24 16 37 16 15 0 24 6 24 15 0 8 6 15
14 15 9 0 16 19 20 60 4 33 12 60 17 60 6 0 7 -4 4 -10 -9 -15 4 -30 21 -23 8
3 13 12 10 19 -3 8 -1 14 4 14 6 0 10 -4 10 -10 0 -5 10 -10 23 -9 21 0 21 1
2 9 -19 8 -19 9 3 9 13 1 22 7 22 17 0 8 5 12 10 9 6 -3 10 -1 10 4 0 18 -48
12 -60 -6 -9 -15 -10 -14 -4 6 3 13 2 21 -3 18 -5 -3 -15 -2 -23 3 -9 6 -19 3
-27 -8 -12 -15 -13 -14 -3 6 9 19 8 22 -9 22 -11 0 -22 -6 -24 -12 -4 -10 -6
-10 -6 0 -1 7 13 18 29 23 17 6 30 15 30 20 0 5 7 9 15 9 8 0 15 4 15 9 0 5 3
16 6 25 10 25 -21 19 -33 -6 l-11 -23 -9 24 c-12 29 -50 36 -76 13 -15 -14
-17 -13 -17 6 0 18 -6 22 -29 22 -17 0 -33 5 -36 10 -3 6 -24 8 -46 5 -22 -3
-38 -2 -36 3 3 4 -17 8 -45 9 -28 1 -56 7 -63 13 -12 10 -43 15 -170 25 -33 2
-105 9 -160 14 -55 6 -212 8 -350 5 -137 -3 -286 -5 -330 -5 -44 0 -105 -5
-135 -11 -30 -6 -95 -11 -143 -13 -50 -1 -92 -7 -96 -13 -3 -5 -71 -15 -151
-21 -80 -6 -174 -15 -210 -20 -36 -5 -92 -11 -125 -12 -33 -1 -64 -5 -70 -9
-5 -4 -32 -11 -60 -15 -27 -5 -54 -10 -60 -11 -47 -14 -99 -23 -150 -27 -33
-2 -71 -8 -85 -14 -14 -6 -65 -16 -115 -21 -117 -13 -197 -29 -204 -40 -3 -5
-44 -14 -91 -20 -157 -20 -235 -34 -246 -43 -7 -6 -45 -13 -86 -18 -41 -5 -83
-13 -94 -19 -10 -5 -41 -14 -69 -18 -27 -4 -52 -9 -55 -9 -3 -1 -36 -5 -75 -9
-38 -5 -84 -14 -101 -21 -17 -7 -78 -16 -135 -20 -57 -4 -107 -12 -110 -17 -9
-14 -639 -15 -647 -1 -4 6 -23 14 -42 18 -86 17 -163 51 -203 88 -23 22 -53
48 -66 58 -13 10 -20 19 -16 19 4 0 -5 17 -21 37 -26 35 -28 44 -32 153 -6
153 9 239 54 326 67 129 95 174 110 174 8 0 20 13 25 29 11 32 68 75 111 85
15 3 33 12 40 19 24 24 141 46 152 28 4 -6 17 -11 30 -11 12 0 26 -4 31 -9 6
-4 39 -14 74 -20 35 -7 73 -21 84 -32 12 -11 39 -22 60 -26 22 -3 52 -18 70
-35 18 -16 43 -32 57 -35 28 -7 132 -62 141 -75 4 -6 128 -5 182 1 4 1 12 13
17 27 6 14 20 28 31 31 16 5 20 12 17 34 -3 15 0 25 4 22 5 -3 6 11 2 32 -5
29 -4 36 6 30 9 -6 9 -2 -1 16 -7 13 -11 25 -10 27 9 11 -27 152 -39 152 -6 0
-10 7 -10 15 0 27 -39 94 -63 106 -12 7 -54 38 -92 69 -80 64 -164 111 -245
136 -30 9 -62 23 -70 29 -22 19 -110 33 -245 41 -147 7 -333 -15 -372 -45 -13
-11 -38 -23 -56 -27 -26 -5 -80 -39 -133 -83 -6 -5 -29 -20 -52 -35 -23 -14
-48 -35 -54 -46 -7 -11 -19 -20 -26 -20 -17 0 -110 -93 -151 -152 -19 -26 -40
-49 -47 -52 -8 -3 -14 -13 -14 -22 0 -8 -9 -23 -19 -32 -11 -10 -26 -39 -34
-67 l-14 -50 -69 -12 c-38 -6 -88 -12 -111 -12 -23 -1 -45 -5 -48 -11 -3 -5
-23 -10 -44 -10 -21 0 -55 -7 -75 -15 -21 -9 -57 -18 -82 -20 -25 -3 -54 -9
-64 -15 -10 -5 -39 -10 -65 -10 -25 0 -60 -7 -76 -16 -17 -8 -71 -20 -120 -25
-49 -5 -97 -13 -107 -18 -35 -18 -194 -51 -248 -51 -17 0 -34 -4 -39 -9 -6 -5
-32 -14 -60 -19 -27 -6 -59 -12 -70 -15 -11 -2 -50 -8 -87 -12 -37 -3 -70 -10
-73 -15 -2 -4 -44 -11 -91 -15 -47 -4 -101 -13 -118 -20 -17 -8 -96 -17 -176
-20 -80 -4 -149 -11 -155 -15 -5 -4 -75 -13 -155 -20 -79 -6 -147 -13 -150
-15 -3 -2 -73 -6 -154 -10 -82 -3 -157 -10 -167 -15 -23 -13 -76 -13 -84 0 -9
15 -172 13 -178 -2 -4 -10 -6 -10 -6 0 -1 14 -92 17 -106 3 -9 -8 -172 -15
-525 -24 -52 -2 -100 -6 -106 -10 -11 -7 -514 -7 -619 -1 -33 2 -100 6 -150 8
-126 6 -198 15 -205 26 -3 5 -39 13 -80 16 -57 6 -86 14 -121 36 -25 15 -49
28 -53 28 -4 0 -40 16 -80 35 -40 19 -76 35 -80 35 -3 0 -28 16 -55 35 -26 19
-53 35 -58 35 -5 0 -18 8 -29 18 -11 9 -32 24 -46 32 -44 25 -153 103 -156
112 -2 4 -8 8 -13 8 -9 0 -37 21 -71 53 -10 9 -21 17 -26 17 -4 0 -20 13 -35
29 -15 17 -36 32 -46 36 -10 3 -40 32 -66 65 -27 33 -54 60 -61 60 -7 0 -21
13 -30 29 -10 16 -28 35 -41 42 -12 7 -25 20 -28 29 -3 9 -16 22 -29 28 -13 6
-27 20 -31 31 -3 12 -10 21 -15 21 -10 0 -79 67 -200 194 -50 53 -74 85 -72
98 3 14 -2 18 -14 16 -9 -2 -19 3 -22 11 -3 8 0 11 6 7 6 -3 14 -1 18 5 5 9
-1 10 -19 5 -26 -6 -27 -5 -21 31 3 21 3 35 -1 31 -4 -4 -13 -1 -20 5 -10 10
-9 15 6 25 22 15 26 37 5 29 -7 -3 -19 0 -25 6 -9 9 -14 8 -21 -3 -8 -12 -10
-12 -16 3 -4 11 -18 17 -38 18 -17 1 -23 3 -13 6 9 2 17 8 17 13 0 12 -28 20
-45 14 -8 -4 -22 -1 -30 6 -9 8 -27 10 -46 6 -17 -3 -28 -2 -24 4 15 24 -206
-9 -270 -40 -22 -10 -61 -27 -87 -36 -27 -9 -48 -20 -48 -24 0 -3 -27 -19 -60
-34 -33 -15 -60 -31 -60 -35 0 -3 -16 -15 -35 -25 -19 -11 -35 -23 -35 -28 0
-5 -21 -18 -46 -29 -26 -10 -55 -30 -66 -44 -11 -14 -25 -25 -32 -25 -8 0 -31
-16 -52 -35 -21 -19 -46 -37 -55 -40 -10 -4 -21 -15 -24 -26 -4 -10 -11 -19
-16 -19 -10 0 -47 -35 -90 -87 -14 -17 -39 -38 -55 -46 -29 -15 -84 -64 -216
-195 l-68 -66 0 39 c0 22 5 83 11 135 10 96 13 192 6 220 -26 113 -99 190
-180 190 -84 0 -98 -8 -208 -126 -62 -65 -160 -154 -170 -154 -5 0 -9 -6 -9
-14 0 -7 -10 -20 -23 -29 -31 -20 -94 -83 -101 -102 -3 -8 -21 -23 -41 -32
-19 -9 -35 -21 -35 -26 0 -8 -45 -54 -106 -107 -16 -14 -47 -36 -69 -49 -22
-13 -45 -32 -53 -42 -7 -10 -19 -19 -26 -19 -8 0 -19 -6 -25 -14 -17 -20 -176
-126 -189 -126 -6 0 -17 -6 -24 -13 -7 -7 -34 -24 -60 -37 -27 -13 -48 -27
-48 -32 0 -4 -6 -8 -13 -8 -13 0 -89 -38 -97 -49 -12 -16 -100 -61 -120 -61
-12 0 -19 -4 -16 -8 3 -5 -19 -16 -49 -26 -30 -9 -60 -22 -67 -29 -18 -18 -87
-45 -130 -52 -21 -3 -38 -10 -38 -14 0 -5 -38 -21 -85 -35 -47 -15 -85 -30
-85 -35 0 -4 -19 -13 -42 -20 -44 -12 -75 -24 -118 -46 -14 -7 -61 -21 -105
-31 -44 -10 -82 -21 -85 -25 -8 -10 -108 -31 -122 -26 -7 2 -23 0 -35 -4 -12
-5 -66 -13 -120 -18 -54 -6 -99 -15 -101 -21 -2 -5 -11 -10 -20 -9 -11 0 -12
2 -4 6 6 2 12 9 12 14 0 10 -52 1 -60 -11 -8 -11 -121 -15 -385 -13 -315 2
-328 2 -336 14 -3 6 -66 17 -140 25 -74 8 -148 18 -166 23 -17 5 -34 6 -37 3
-3 -3 -6 0 -6 6 0 6 -26 16 -57 22 -98 19 -188 42 -193 49 -3 4 -25 13 -49 20
-24 7 -68 24 -97 37 -29 13 -60 24 -68 24 -9 0 -16 5 -16 10 0 6 -6 10 -13 10
-8 0 -21 8 -31 18 -9 11 -33 24 -54 30 -20 6 -50 23 -66 37 -16 14 -32 25 -36
25 -12 0 -65 58 -80 86 -8 16 -28 42 -44 57 -25 25 -27 33 -21 65 12 63 14
122 4 122 -5 0 -9 7 -9 16 0 17 -35 79 -57 102 -7 7 -13 18 -13 23 0 5 -7 9
-15 9 -8 0 -15 4 -15 9 0 5 -15 14 -32 21 -18 6 -41 16 -50 21 -22 11 -125 12
-132 0 -3 -4 -19 -11 -34 -14 -46 -9 -152 -121 -152 -160 0 -13 -6 -14 -32 -6
-43 12 -44 12 -64 -8 -15 -16 -15 -17 2 -24 13 -5 6 -8 -21 -8 -22 1 -34 3
-27 6 6 2 10 9 6 14 -3 5 2 9 10 9 9 0 16 5 16 10 0 14 -57 13 -62 -1 -2 -6
-30 -13 -61 -16 -32 -3 -70 -8 -85 -13 l-27 -8 25 -10 25 -11 -28 0 c-16 -1
-37 4 -48 10 -11 5 -32 9 -47 6 l-27 -3 25 -12 c22 -11 17 -12 -37 -8 -50 3
-63 1 -63 -10 0 -8 -10 -14 -24 -14 -13 0 -33 -3 -43 -6 -13 -4 -15 -3 -4 4 9
7 10 12 2 16 -13 9 -33 -2 -26 -14 3 -4 -11 -11 -29 -14 -19 -4 -36 -12 -38
-18 -3 -7 -23 -12 -46 -12 -28 -1 -41 -5 -38 -13 3 -6 -10 -14 -30 -17 -19 -4
-34 -11 -34 -16 0 -6 -6 -10 -12 -10 -7 -1 -31 -9 -53 -20 -22 -11 -46 -19
-53 -20 -7 0 -20 -7 -29 -15 -9 -10 -24 -13 -37 -10 -14 4 -17 3 -8 -3 10 -7
10 -11 -1 -21 -8 -6 -21 -9 -29 -6 -9 4 -19 -4 -26 -20 -9 -20 -17 -25 -32
-20 -11 4 -20 2 -20 -4 0 -6 -7 -11 -16 -11 -8 0 -12 -5 -9 -11 4 -6 0 -9 -11
-7 -13 2 -19 -3 -17 -15 1 -14 -4 -18 -20 -13 -23 6 -46 -18 -47 -46 0 -10 -6
-18 -14 -18 -8 0 -22 -10 -30 -22 -9 -12 -26 -23 -38 -23 -18 0 -22 -5 -21
-22 2 -15 -3 -23 -13 -23 -15 0 -44 -23 -44 -34 0 -3 8 -3 18 0 9 3 3 -4 -14
-15 -17 -11 -60 -49 -96 -83 -36 -35 -78 -74 -94 -87 -25 -20 -124 -109 -176
-157 -9 -9 -21 -13 -27 -9 -6 3 -11 0 -11 -8 0 -19 -83 -93 -114 -101 -14 -3
-26 -11 -26 -17 0 -6 -5 -7 -10 -4 -18 11 -42 -15 -30 -31 9 -9 7 -11 -7 -8
-19 5 -59 -47 -45 -60 4 -4 -5 -5 -21 -1 -23 6 -26 4 -21 -9 4 -9 2 -16 -3
-14 -12 4 -73 -42 -73 -54 0 -12 -26 -38 -37 -38 -5 0 -15 -9 -22 -19 -8 -11
-19 -17 -26 -15 -6 3 -20 -6 -31 -18 -12 -13 -31 -30 -42 -38 -12 -8 -22 -19
-22 -25 0 -5 -14 -19 -30 -30 -17 -11 -32 -27 -35 -36 -3 -9 -23 -22 -45 -29
-22 -7 -40 -18 -40 -24 0 -7 -9 -18 -21 -26 -42 -30 -74 -60 -64 -61 6 -1 -1
-4 -15 -8 -14 -4 -38 -26 -55 -48 -16 -23 -36 -42 -43 -42 -7 -1 -15 -8 -19
-16 -3 -9 -22 -24 -42 -35 -39 -21 -75 -48 -126 -95 -64 -59 -94 -82 -129 -99
-20 -9 -36 -21 -36 -26 0 -5 -22 -21 -50 -36 -27 -15 -50 -31 -50 -35 0 -5
-17 -18 -37 -29 -41 -22 -95 -60 -129 -89 -11 -10 -35 -26 -52 -37 -18 -10
-32 -22 -32 -26 0 -4 -19 -17 -41 -29 -23 -11 -53 -32 -67 -45 -15 -13 -38
-26 -53 -29 -15 -3 -40 -18 -57 -33 -69 -61 -93 -75 -145 -87 -16 -3 -40 -17
-54 -31 -14 -15 -40 -31 -57 -37 -17 -5 -42 -18 -56 -27 -45 -30 -157 -87
-196 -100 -22 -7 -48 -21 -59 -31 -20 -18 -125 -58 -153 -59 -7 0 -33 -9 -57
-20 -49 -22 -165 -36 -218 -26 -27 5 -38 13 -46 36 -5 17 -14 30 -19 30 -12 0
-28 41 -42 104 -6 26 -17 61 -26 77 -12 24 -15 71 -15 231 0 120 3 203 9 207
6 3 12 49 15 101 3 52 10 120 16 150 13 62 30 168 35 219 3 19 9 37 14 40 9 5
39 160 45 230 1 13 8 26 15 29 6 2 12 13 12 25 0 12 7 44 15 71 8 27 15 62 15
77 0 15 4 29 10 31 11 3 60 193 60 231 0 13 3 26 6 30 11 11 54 141 54 164 0
12 4 23 9 25 6 2 11 14 14 28 2 14 11 42 19 62 9 20 19 64 21 97 3 34 11 67
19 74 7 8 22 48 32 90 11 42 23 77 27 77 5 0 11 17 14 38 4 20 9 44 13 52 3 8
7 20 8 25 8 47 18 74 25 69 5 -3 9 3 9 12 0 10 4 31 10 48 5 17 17 66 26 109
9 42 21 77 25 77 5 0 9 8 9 18 0 10 4 22 9 27 5 6 14 35 20 65 7 30 18 62 27
71 8 9 14 20 13 25 -5 16 22 124 32 129 5 4 9 17 9 30 0 12 6 25 14 28 7 3 20
42 30 94 10 48 22 97 28 107 19 36 48 129 48 155 0 20 2 23 10 11 7 -11 10 -7
10 17 0 17 5 35 10 38 6 4 8 10 5 15 -3 5 -1 11 3 14 5 3 15 33 22 66 7 33 17
60 21 60 5 0 9 10 9 23 0 12 7 32 15 44 8 11 17 40 21 64 4 24 10 46 14 49 7
5 42 116 56 175 4 17 11 32 15 35 4 3 10 17 12 30 2 14 9 38 15 53 7 16 12 42
12 59 0 16 7 44 16 61 29 55 31 62 39 107 4 25 14 58 22 73 23 45 63 179 63
209 0 16 4 28 8 28 11 0 31 59 42 126 5 32 13 60 18 63 5 3 12 17 15 31 10 48
15 65 26 93 6 16 11 50 11 77 0 27 6 55 13 62 15 15 29 45 33 68 22 144 28
176 33 180 13 10 31 62 26 71 -4 5 -2 9 3 9 5 0 13 28 16 62 4 35 12 68 17 75
6 6 14 47 18 91 5 44 11 84 14 88 3 5 10 46 17 91 6 45 17 94 24 110 8 15 17
72 20 126 3 55 8 103 11 107 3 5 8 30 10 56 3 27 10 51 15 54 6 4 13 74 16
167 5 135 3 162 -10 175 -8 9 -12 24 -10 35 3 11 -1 26 -8 34 -15 14 -18 22
-18 38 0 5 -7 17 -16 26 -14 13 -19 14 -25 3 -6 -8 -9 0 -9 23 l0 37 -107 0
-108 0 -32 -33z m3224 -4852 c-33 -36 -56 -59 -78 -78 -13 -12 -31 -31 -39
-43 -8 -12 -18 -22 -22 -22 -10 0 -107 -98 -102 -103 2 -2 -24 -26 -58 -52
-65 -50 -118 -101 -118 -113 0 -4 -25 -25 -57 -47 -53 -38 -104 -80 -160 -133
-13 -12 -47 -35 -74 -50 -28 -15 -65 -35 -82 -45 -30 -16 -33 -16 -44 0 -7 9
-13 27 -13 40 0 13 -5 23 -10 23 -7 0 -7 6 0 19 5 11 10 38 10 61 0 52 19 130
32 130 6 0 8 6 5 14 -3 8 1 17 9 20 8 3 14 13 14 22 0 14 19 36 67 74 7 6 17
10 23 10 5 0 10 5 10 10 0 6 12 16 28 23 15 6 38 22 51 33 13 12 41 25 63 28
29 5 38 10 34 21 -3 8 0 17 6 21 7 4 8 3 4 -4 -10 -17 10 -15 27 2 7 8 34 20
58 27 24 7 47 17 50 21 8 12 107 38 142 38 16 0 26 4 23 9 -3 5 2 8 12 7 9 0
16 4 15 11 -3 12 8 15 122 32 33 5 62 9 64 10 3 0 -3 -7 -12 -16z"/>
<path d="M5838 10112 c-21 -2 -38 -7 -38 -11 0 -10 -66 -28 -135 -36 -27 -4
-61 -13 -75 -20 -14 -7 -64 -25 -112 -40 -49 -15 -88 -31 -88 -36 0 -5 -20
-15 -45 -21 -25 -7 -54 -20 -64 -29 -10 -9 -28 -20 -42 -23 -46 -13 -99 -39
-99 -49 0 -5 -6 -7 -14 -4 -8 3 -17 -1 -20 -9 -3 -8 -12 -14 -21 -14 -21 0
-95 -38 -95 -49 0 -4 -18 -14 -40 -21 -23 -8 -44 -19 -48 -25 -4 -7 -33 -25
-64 -39 -32 -15 -58 -32 -58 -37 0 -5 -5 -9 -10 -9 -6 0 -51 -27 -101 -60 -50
-33 -95 -58 -100 -54 -5 3 -9 1 -9 -4 0 -5 -13 -15 -29 -22 -16 -6 -32 -18
-35 -25 -3 -8 -23 -23 -45 -35 -50 -25 -151 -100 -151 -111 0 -18 -19 -8 -26
13 -5 18 -49 66 -116 126 -25 21 -157 29 -211 11 -45 -15 -98 -67 -135 -131
-18 -31 -24 -62 -28 -127 -7 -117 -40 -256 -68 -281 -40 -38 -81 -70 -88 -70
-4 0 -28 -18 -53 -40 -25 -22 -51 -40 -56 -40 -15 0 -119 -79 -119 -90 0 -5
-13 -16 -29 -24 -16 -9 -43 -29 -59 -46 -17 -16 -37 -30 -46 -30 -16 0 -46
-22 -191 -137 -43 -35 -84 -63 -91 -63 -8 0 -14 -4 -14 -8 0 -5 -19 -19 -42
-32 -40 -22 -72 -46 -109 -81 -9 -10 -37 -29 -60 -43 -24 -14 -70 -50 -102
-81 -31 -30 -62 -55 -67 -55 -4 0 -15 -6 -22 -13 -7 -7 -29 -23 -48 -37 -19
-13 -46 -35 -60 -48 -30 -30 -105 -82 -117 -82 -5 0 -27 -17 -49 -37 -22 -21
-55 -49 -74 -63 -19 -14 -50 -39 -70 -56 -19 -17 -48 -42 -65 -55 -16 -13 -53
-46 -81 -74 -28 -27 -69 -66 -90 -87 -62 -58 -94 -93 -94 -101 0 -5 -6 -14
-12 -22 -7 -7 -26 -30 -43 -51 -16 -21 -38 -45 -47 -55 -9 -10 -14 -20 -10
-23 3 -3 0 -6 -6 -6 -7 0 -12 -8 -12 -17 0 -10 -9 -33 -20 -51 -11 -18 -20
-37 -20 -43 0 -5 -9 -19 -19 -30 -11 -12 -22 -43 -26 -70 -4 -27 -11 -52 -17
-55 -6 -4 -5 -10 3 -15 10 -6 11 -9 2 -9 -31 0 -1 -118 43 -174 16 -20 50 -45
78 -57 94 -40 224 -12 273 59 23 34 52 94 53 107 0 6 21 34 48 63 26 28 63 72
82 97 19 25 41 45 47 45 7 0 13 4 13 8 0 11 60 72 100 102 18 14 48 40 66 58
19 17 37 32 41 32 5 0 28 18 53 41 78 71 84 76 119 93 18 10 54 39 80 65 25
27 61 56 79 65 17 9 32 20 32 24 0 4 21 21 45 37 25 17 45 33 45 37 0 4 19 17
43 29 23 12 44 25 47 29 3 3 24 17 47 30 24 13 45 32 48 41 3 10 16 21 28 25
12 4 36 19 53 33 16 15 44 33 61 40 17 7 36 23 43 36 7 13 26 29 41 36 16 6
27 15 24 19 -2 4 16 17 40 29 24 12 45 25 47 29 2 5 24 20 50 34 l47 26 -15
-23 c-9 -13 -13 -29 -9 -35 3 -5 2 -10 -4 -10 -5 0 -15 -25 -22 -55 -7 -31
-16 -58 -21 -61 -4 -3 -8 -17 -8 -32 0 -15 -6 -37 -14 -48 -13 -18 -17 -35
-30 -117 -3 -16 -14 -47 -25 -70 -11 -23 -25 -61 -32 -84 -7 -24 -15 -43 -19
-43 -7 0 -22 -41 -25 -65 -2 -20 -48 -150 -57 -162 -5 -7 -7 -17 -3 -23 3 -5
2 -10 -3 -10 -5 0 -13 -19 -16 -43 -4 -23 -13 -55 -21 -71 -8 -16 -15 -37 -15
-47 0 -10 -4 -20 -9 -23 -4 -3 -14 -27 -21 -53 -7 -27 -17 -52 -21 -57 -5 -6
-9 -20 -9 -32 0 -13 -5 -26 -11 -29 -6 -4 -8 -13 -5 -21 3 -8 2 -14 -2 -14 -5
0 -14 -24 -21 -52 -7 -29 -20 -64 -28 -77 -8 -12 -13 -31 -10 -42 3 -10 -1
-23 -8 -29 -7 -6 -16 -33 -20 -61 -4 -27 -10 -49 -13 -49 -9 0 -29 -47 -37
-90 -4 -19 -13 -46 -20 -60 -26 -51 -35 -76 -50 -134 -8 -32 -18 -63 -23 -70
-5 -6 -19 -54 -31 -106 -12 -52 -27 -105 -33 -117 -6 -11 -8 -26 -4 -31 3 -5
-1 -12 -8 -15 -17 -7 -36 -67 -36 -114 0 -17 -8 -39 -17 -49 -10 -10 -18 -20
-19 -23 0 -3 -3 -13 -7 -21 -3 -8 -11 -46 -17 -84 -6 -38 -19 -81 -29 -95 -16
-24 -51 -149 -51 -184 0 -8 -6 -20 -14 -26 -8 -7 -16 -28 -19 -49 -12 -93 -32
-178 -44 -190 -13 -14 -43 -104 -43 -132 0 -9 -4 -20 -8 -25 -5 -6 -15 -37
-21 -70 -7 -33 -19 -77 -27 -98 -8 -20 -14 -46 -14 -56 0 -10 -7 -24 -15 -31
-8 -7 -14 -18 -14 -24 1 -6 0 -18 -4 -26 -19 -51 -27 -88 -27 -126 0 -24 -4
-44 -9 -44 -10 0 -24 -34 -41 -103 -7 -26 -20 -58 -30 -70 -9 -12 -22 -49 -29
-82 -7 -33 -19 -70 -27 -82 -7 -11 -16 -32 -18 -45 -14 -66 -34 -135 -43 -153
-15 -28 -27 -61 -48 -127 -10 -32 -22 -58 -26 -58 -4 0 -16 -39 -28 -87 -11
-47 -25 -90 -32 -94 -7 -4 -10 -20 -7 -38 3 -21 0 -31 -9 -31 -7 0 -13 -7 -13
-16 0 -9 -6 -28 -14 -42 -21 -39 -63 -151 -71 -192 -4 -19 -11 -38 -16 -41 -5
-3 -10 -18 -11 -35 -1 -16 -5 -33 -9 -39 -12 -17 -21 -141 -14 -194 4 -28 14
-58 22 -66 8 -8 12 -15 8 -15 -3 0 14 -22 40 -48 52 -56 93 -72 181 -72 79 0
119 13 157 50 17 16 34 30 39 30 4 0 8 7 8 15 0 9 6 18 14 21 8 3 18 20 21 37
4 18 20 64 35 102 16 39 32 86 36 105 3 19 10 41 14 50 23 46 42 101 45 133 2
19 11 47 20 61 10 14 13 26 9 26 -5 0 -1 5 8 11 10 5 18 17 18 25 0 8 11 36
24 62 12 26 31 79 41 117 9 39 28 93 40 120 13 28 29 73 36 100 6 28 16 54 20
60 5 5 9 17 9 27 0 9 6 21 14 25 7 4 15 26 18 49 5 36 22 85 48 134 4 9 13 48
20 88 6 39 16 74 21 78 5 3 9 16 9 29 0 13 4 26 8 29 4 3 14 28 22 55 7 28 17
51 22 51 4 0 8 16 8 35 0 19 4 35 9 35 5 0 14 33 20 72 12 77 39 170 51 178 8
6 39 119 47 170 3 19 9 40 14 45 4 6 13 33 19 60 6 28 14 59 19 70 18 45 34
95 58 180 13 50 30 104 37 120 8 17 17 49 21 73 4 23 10 42 13 42 10 0 32 74
32 105 0 13 7 41 16 62 9 21 22 52 29 68 7 17 18 55 24 85 14 63 41 143 51
150 4 3 14 37 24 75 9 39 23 79 31 91 7 12 20 53 28 93 9 40 21 79 28 88 15
17 48 135 49 171 0 12 5 22 10 22 6 0 10 8 10 19 0 10 6 24 14 30 7 6 16 30
20 52 4 23 15 60 25 83 11 22 27 68 36 101 9 33 25 83 35 110 10 28 26 77 35
109 9 32 22 68 30 80 7 12 21 55 31 96 10 41 21 77 24 80 16 12 29 50 41 125
7 44 16 82 19 85 8 7 29 57 47 110 8 25 22 49 29 53 8 5 12 13 8 18 -3 5 4 36
15 69 12 33 21 68 21 79 0 10 7 32 16 49 8 17 17 43 20 58 3 14 11 45 19 67 8
23 15 48 15 55 0 7 7 20 15 28 8 9 15 33 15 54 0 38 21 118 40 152 6 10 10 24
10 32 0 7 7 27 15 42 8 16 15 40 15 52 0 13 6 36 14 50 8 15 21 56 28 91 13
59 18 67 54 87 21 12 50 31 64 43 75 61 98 78 124 90 28 12 55 32 128 94 18
15 38 27 44 27 6 0 54 29 107 65 53 36 100 65 105 65 6 0 20 13 33 30 15 18
33 30 48 30 13 0 38 11 55 24 17 12 51 34 76 47 25 14 70 41 100 60 48 31 304
160 430 217 56 25 136 52 155 52 8 0 15 3 15 8 0 26 226 57 329 45 48 -5 51
-8 61 -42 23 -84 -2 -284 -46 -369 -8 -15 -14 -36 -14 -46 0 -17 -12 -62 -27
-101 -2 -5 -14 -30 -28 -54 -14 -24 -25 -48 -25 -52 0 -4 -16 -35 -35 -68 -19
-32 -35 -66 -35 -74 0 -8 -6 -17 -12 -20 -7 -2 -22 -30 -32 -61 -11 -32 -27
-63 -36 -69 -10 -7 -20 -21 -24 -33 -3 -11 -22 -38 -41 -60 -19 -21 -35 -46
-35 -55 0 -9 -11 -28 -25 -43 -14 -15 -32 -40 -40 -57 -9 -16 -19 -29 -23 -29
-5 0 -19 -19 -31 -42 -25 -48 -62 -104 -85 -130 -9 -10 -16 -22 -16 -26 0 -5
-21 -31 -46 -58 -25 -27 -50 -61 -55 -75 -6 -14 -21 -32 -34 -39 -14 -7 -27
-21 -30 -31 -3 -9 -12 -20 -20 -23 -8 -3 -15 -12 -15 -21 0 -8 -4 -15 -10 -15
-5 0 -10 -5 -10 -11 0 -7 -16 -31 -35 -55 -19 -23 -35 -47 -35 -53 0 -6 -10
-17 -22 -26 -13 -8 -43 -40 -68 -70 -25 -31 -96 -109 -159 -173 -62 -64 -131
-141 -153 -169 -22 -29 -44 -53 -48 -53 -3 0 -47 -38 -96 -85 -49 -47 -105
-98 -124 -115 -19 -16 -57 -50 -85 -75 -27 -25 -53 -45 -57 -45 -4 0 -9 -8
-12 -18 -4 -10 -22 -26 -41 -35 -19 -9 -35 -21 -35 -27 0 -5 -14 -17 -32 -26
-37 -19 -59 -39 -52 -47 3 -3 -4 -8 -15 -12 -12 -3 -57 -37 -100 -74 -43 -37
-92 -73 -109 -80 -18 -7 -29 -17 -27 -22 3 -4 -14 -17 -38 -28 -25 -11 -47
-27 -50 -35 -3 -8 -21 -23 -39 -32 -39 -20 -110 -74 -121 -92 -4 -6 -22 -19
-40 -28 -18 -10 -48 -30 -67 -45 -19 -16 -38 -29 -43 -29 -5 0 -21 -12 -36
-27 -16 -16 -39 -36 -53 -45 -14 -9 -33 -33 -42 -53 -10 -20 -24 -39 -32 -42
-8 -3 -11 -9 -8 -14 3 -5 1 -9 -4 -9 -11 0 -32 -97 -32 -145 0 -64 29 -132 76
-179 25 -25 51 -46 58 -46 8 0 26 -10 42 -22 25 -20 40 -23 120 -23 80 0 96 3
116 21 13 12 38 26 56 32 18 6 45 20 60 30 15 10 42 24 61 30 18 7 45 23 59
37 13 14 34 25 46 25 12 0 42 13 67 28 24 15 60 34 79 42 19 8 53 24 75 36 22
11 54 24 70 28 17 4 50 20 75 36 25 15 56 31 70 35 14 4 37 16 52 27 15 10 37
21 49 23 40 8 63 18 81 35 11 10 45 25 77 34 32 9 66 25 75 35 9 10 38 25 64
32 26 7 56 21 66 31 19 17 75 38 104 38 7 0 30 13 53 29 22 16 53 33 69 36 16
4 51 17 79 30 27 13 62 27 78 31 15 4 42 17 58 29 43 31 112 65 133 65 10 0
37 9 60 20 22 11 46 20 52 20 5 0 10 5 10 10 0 6 9 10 19 10 11 0 22 4 26 9 3
5 22 15 42 22 20 6 66 31 102 55 35 24 76 44 89 44 24 0 142 38 152 49 3 3 34
20 70 37 62 30 78 36 175 70 22 8 48 19 57 24 10 6 23 10 30 10 7 0 40 14 73
30 33 16 94 40 135 52 41 12 77 25 80 28 8 9 182 78 215 85 62 12 145 38 145
46 0 4 15 10 33 14 88 18 163 39 168 47 3 5 53 16 110 23 108 14 176 30 196
47 6 5 130 12 275 15 284 7 272 8 468 -54 45 -14 190 -83 200 -94 3 -3 11 -8
18 -10 30 -10 142 -118 166 -160 14 -25 34 -53 45 -63 20 -18 38 -76 33 -104
-2 -7 4 -15 12 -18 8 -3 12 -12 9 -21 -3 -8 0 -18 7 -23 14 -9 29 -122 30
-228 0 -87 -18 -214 -32 -223 -6 -4 -10 -18 -10 -33 0 -14 -4 -26 -8 -26 -4 0
-7 -13 -8 -29 0 -17 -5 -39 -11 -50 -6 -11 -11 -30 -11 -44 0 -13 -11 -33 -24
-46 -12 -12 -29 -41 -36 -64 -7 -23 -20 -53 -29 -67 -10 -14 -24 -41 -31 -60
-8 -19 -25 -50 -39 -69 -24 -32 -79 -115 -139 -209 -15 -24 -39 -58 -54 -75
-15 -18 -30 -40 -34 -49 -3 -10 -10 -18 -15 -18 -5 0 -9 -6 -9 -13 0 -7 -38
-52 -85 -101 -47 -48 -85 -93 -85 -100 0 -7 -11 -19 -25 -26 -14 -7 -25 -19
-25 -26 0 -7 -25 -36 -55 -66 -30 -29 -55 -58 -55 -65 0 -6 -15 -21 -32 -32
-18 -11 -46 -37 -63 -57 -16 -20 -41 -46 -54 -58 -47 -40 -101 -102 -101 -115
0 -5 -9 -12 -19 -16 -16 -5 -35 -31 -31 -43 0 -1 -35 -31 -77 -65 -43 -34
-100 -83 -127 -110 -28 -26 -73 -64 -100 -84 -28 -20 -78 -64 -112 -97 -33
-34 -86 -81 -117 -105 -31 -24 -57 -47 -57 -51 0 -4 -13 -13 -29 -20 -16 -6
-40 -23 -53 -37 -12 -14 -36 -32 -53 -40 -16 -9 -39 -24 -50 -34 -72 -66 -88
-79 -114 -90 -17 -8 -36 -24 -42 -36 -7 -13 -23 -26 -36 -29 -13 -4 -29 -14
-36 -23 -6 -9 -25 -23 -42 -31 -33 -16 -135 -97 -148 -117 -4 -7 -15 -13 -23
-13 -9 0 -28 -13 -44 -28 -15 -16 -61 -48 -102 -73 -40 -24 -86 -56 -102 -71
-16 -16 -35 -28 -42 -28 -7 0 -31 -17 -52 -37 -52 -51 -71 -65 -114 -86 -21
-10 -43 -25 -50 -35 -19 -25 -85 -72 -137 -99 -25 -12 -66 -42 -91 -65 -63
-59 -141 -118 -156 -118 -7 0 -17 -6 -21 -13 -4 -7 -27 -25 -51 -40 -68 -44
-142 -112 -142 -130 0 -4 -4 -6 -9 -3 -5 3 -22 -8 -40 -24 -17 -17 -33 -30
-37 -30 -10 0 -34 -28 -34 -41 0 -7 -2 -10 -5 -7 -9 8 -87 -70 -81 -80 3 -6
-4 -12 -15 -15 -12 -3 -18 -10 -15 -15 3 -6 0 -12 -6 -15 -10 -3 -10 -7 -2
-18 6 -8 14 -21 17 -30 4 -13 1 -16 -14 -12 -14 4 -19 0 -19 -15 0 -15 8 -21
35 -24 19 -2 37 1 39 7 2 5 5 -1 5 -14 1 -17 -3 -22 -15 -17 -12 5 -15 2 -10
-10 3 -8 6 -18 6 -20 0 -2 8 -4 18 -4 10 0 24 -6 31 -13 11 -10 12 -9 6 2 -5
9 -4 12 3 7 7 -4 12 -15 12 -26 0 -21 29 -35 44 -20 13 13 63 13 71 0 10 -16
38 -12 31 5 -3 9 0 15 9 15 8 0 15 4 15 10 0 5 16 12 37 16 20 4 48 13 62 20
14 8 32 14 39 14 6 0 12 5 12 11 0 6 7 9 15 6 8 -4 17 -2 20 3 3 4 -1 10 -7
13 -7 2 7 7 32 12 42 7 82 27 163 82 63 43 193 110 224 117 18 4 36 13 40 20
5 8 22 21 40 30 18 9 37 25 42 35 6 10 36 29 68 42 32 13 67 31 77 41 11 10
25 18 31 18 6 0 22 11 34 24 12 13 47 34 77 47 30 13 54 27 54 31 0 4 18 17
40 28 22 11 40 25 40 30 0 6 6 10 14 10 8 0 36 18 61 40 25 22 52 40 59 40 7
0 24 10 37 21 13 12 40 32 61 45 20 13 39 28 43 34 3 6 23 17 42 25 20 9 43
24 50 35 8 11 20 20 26 20 7 0 27 16 45 34 18 19 49 42 68 51 18 9 34 20 34
24 0 4 16 16 35 27 19 10 35 24 35 31 0 7 3 12 8 11 6 -2 60 29 72 42 6 7 56
46 101 80 18 14 49 41 70 60 20 19 50 45 65 57 16 13 47 38 69 58 22 19 44 35
49 35 5 0 16 8 25 18 9 9 35 30 58 45 22 16 53 41 68 57 54 59 83 87 163 160
45 41 82 81 82 88 0 7 12 18 27 25 15 6 38 22 52 35 13 12 28 22 32 22 5 0 9
7 9 15 0 8 10 20 23 26 20 10 85 75 235 233 29 31 58 56 63 56 5 0 9 5 9 10 0
18 41 68 128 158 45 47 81 90 79 95 -1 5 14 26 35 47 21 20 38 41 38 46 1 5
19 27 40 49 22 22 40 45 40 52 0 7 3 13 8 13 4 0 18 17 31 38 14 20 30 42 35
47 20 19 66 84 66 93 0 5 7 15 15 22 8 7 25 35 38 61 12 27 26 49 30 49 5 0 5
5 2 10 -3 6 -2 10 3 10 5 0 15 14 22 30 7 17 16 30 20 30 8 0 34 48 100 180
42 85 46 95 66 160 9 30 21 59 25 65 5 5 9 17 9 27 0 10 4 18 9 18 5 0 11 15
15 33 9 48 36 140 48 161 13 25 29 313 22 411 -3 44 -10 94 -16 110 -6 17 -14
55 -18 85 -9 65 -36 161 -47 169 -4 3 -14 17 -21 30 -8 13 -22 38 -32 56 -10
18 -16 36 -13 39 4 3 1 6 -5 6 -7 0 -12 6 -12 13 0 28 -42 98 -83 139 -23 24
-49 54 -57 67 -30 49 -96 119 -132 142 -21 13 -38 27 -38 31 0 3 -17 17 -37
29 -21 13 -55 37 -77 55 -45 38 -222 128 -283 144 -23 6 -45 14 -47 19 -3 5
-23 12 -43 16 -21 4 -43 11 -49 16 -6 5 -78 14 -160 20 -82 6 -153 15 -158 20
-14 13 -70 11 -85 -3 -11 -10 -14 -10 -18 0 -6 14 -143 17 -171 3 -17 -9 -220
-32 -317 -36 -64 -3 -150 -21 -244 -52 -40 -13 -79 -22 -86 -19 -17 6 -78 -10
-131 -35 -22 -10 -48 -19 -57 -19 -9 0 -19 -4 -22 -10 -3 -5 -26 -10 -51 -10
-24 0 -44 -3 -44 -8 0 -4 -39 -20 -87 -36 -49 -16 -95 -32 -103 -36 -8 -4 -40
-13 -70 -20 -30 -6 -63 -16 -72 -21 -10 -5 -24 -9 -32 -9 -8 0 -16 -4 -18 -10
-1 -5 -32 -19 -68 -31 -36 -12 -77 -28 -92 -35 -14 -8 -34 -14 -45 -14 -19 0
-125 -49 -108 -50 6 -1 -15 -9 -47 -19 -31 -10 -72 -28 -91 -40 -19 -11 -42
-21 -50 -21 -26 0 -147 -42 -147 -51 0 -4 -16 -13 -35 -19 -19 -6 -41 -19 -47
-29 -19 -26 -52 -41 -90 -41 -19 0 -39 -5 -46 -12 -7 -7 -12 -9 -12 -5 0 3
-21 -5 -46 -18 -26 -14 -54 -25 -63 -25 -9 0 -28 -8 -41 -17 -24 -17 -25 -17
-10 2 25 33 37 47 112 128 40 43 77 86 82 95 5 9 24 35 43 57 19 22 39 47 46
55 7 8 39 45 70 81 31 36 57 70 57 75 0 5 13 23 30 40 16 18 27 34 24 36 -2 3
2 11 11 18 8 7 15 17 15 22 0 6 12 25 28 43 15 18 50 61 77 96 28 35 53 66 58
67 4 2 5 8 1 13 -3 5 -1 9 5 9 5 0 13 10 17 23 4 12 17 36 30 53 13 17 21 34
17 37 -3 4 -1 7 5 7 6 0 14 10 18 22 3 12 15 31 26 42 11 12 29 42 40 68 11
26 28 54 39 64 10 9 19 23 19 30 0 7 6 19 13 26 12 12 29 45 31 60 1 4 7 13
14 20 6 6 12 16 12 20 0 5 11 21 25 36 14 15 25 32 25 37 0 10 66 153 90 197
6 10 10 25 10 34 0 9 9 27 20 41 11 14 20 34 20 44 0 11 5 19 11 19 6 0 9 7 5
15 -3 8 1 18 8 22 8 5 19 35 26 68 6 33 20 79 31 101 11 23 19 46 18 50 -1 5
1 16 4 24 4 8 10 76 14 150 11 187 -5 408 -32 440 -7 8 -15 27 -19 42 -3 15
-12 33 -19 40 -7 7 -26 36 -42 63 -36 61 -97 120 -147 142 -21 9 -38 20 -38
24 0 3 -25 14 -55 24 -31 9 -63 24 -72 34 -14 14 -43 16 -197 16 -100 0 -198
-1 -218 -3z"/>
<path d="M32653 8645 c-7 -7 -20 -19 -30 -27 -27 -20 -63 -75 -63 -96 0 -10
-11 -29 -25 -42 -14 -13 -25 -31 -25 -40 0 -9 -15 -32 -33 -52 -18 -20 -46
-55 -62 -79 -34 -48 -287 -307 -327 -333 -14 -9 -28 -30 -32 -47 -4 -20 -10
-28 -18 -23 -7 5 -9 2 -5 -8 3 -9 3 -19 -1 -23 -9 -9 -9 -65 1 -65 4 0 7 -6 7
-13 0 -57 218 -35 290 30 23 21 104 72 108 69 2 -2 -3 -32 -11 -67 -12 -53
-23 -113 -32 -174 -1 -5 -4 -17 -7 -25 -7 -17 -10 -33 -44 -325 -3 -27 -11
-56 -16 -63 -7 -7 -11 -93 -12 -216 l-1 -204 30 -44 c30 -41 33 -43 88 -46 37
-2 62 1 72 10 8 7 20 18 27 24 23 20 58 64 51 64 -4 0 -2 5 5 12 7 7 12 22 12
34 0 12 7 41 15 65 23 65 52 214 59 304 9 104 26 217 36 230 4 6 10 35 13 65
4 30 11 82 16 115 5 33 14 93 20 133 6 40 15 80 20 90 5 9 15 51 21 92 6 41
16 91 21 111 5 20 9 50 9 67 0 17 4 32 10 34 9 3 12 36 26 250 6 92 -9 194
-26 183 -4 -3 -17 7 -28 20 -19 22 -30 25 -84 25 -41 -1 -67 -6 -75 -15z"/>
<path d="M35560 8614 c-83 -15 -195 -54 -240 -84 -8 -6 -28 -18 -43 -28 -77
-46 -117 -76 -173 -129 -79 -76 -201 -227 -216 -270 -7 -18 -16 -33 -21 -33
-4 0 -5 -4 -2 -10 3 -5 3 -10 -2 -10 -4 0 -19 -35 -33 -78 -13 -42 -27 -81
-31 -87 -7 -11 -16 -73 -24 -175 -6 -64 11 -331 22 -360 3 -8 18 -49 33 -90
25 -71 44 -103 115 -196 37 -49 52 -64 93 -93 19 -13 45 -34 59 -47 14 -13 30
-24 35 -24 4 0 27 -9 51 -20 62 -29 122 -39 220 -40 83 0 157 11 202 30 11 5
49 19 85 31 36 12 79 34 95 49 17 16 41 31 54 35 31 9 65 39 189 164 62 63
113 124 129 155 14 28 34 63 45 78 10 15 24 42 30 60 6 18 19 44 29 58 10 14
28 63 39 110 11 47 25 92 29 100 5 9 12 35 16 58 4 23 10 44 15 47 12 7 13
312 1 319 -5 3 -12 24 -16 46 -4 22 -11 40 -16 40 -5 0 -9 6 -9 13 0 48 -136
209 -208 246 -23 11 -45 27 -49 34 -8 13 -66 40 -113 53 -14 4 -28 11 -31 16
-13 20 -286 45 -359 32z m220 -300 c39 -8 72 -20 75 -25 4 -5 13 -9 22 -9 20
0 87 -58 115 -101 37 -55 47 -81 51 -134 5 -69 -11 -223 -27 -260 -8 -16 -24
-64 -36 -105 -47 -156 -128 -282 -263 -405 -40 -36 -84 -68 -99 -72 -16 -3
-28 -9 -28 -14 0 -18 -112 -41 -184 -37 -64 3 -77 7 -123 41 -60 44 -110 137
-138 256 -16 66 -16 91 -6 252 l12 180 45 89 c33 64 65 110 112 158 119 120
178 161 274 186 70 19 115 19 198 0z"/>
<path d="M33845 8599 c-27 -5 -59 -14 -70 -19 -11 -5 -47 -19 -80 -31 -33 -12
-67 -28 -76 -35 -8 -8 -24 -14 -35 -14 -11 0 -37 -15 -59 -32 -22 -18 -36 -28
-32 -22 4 7 0 15 -9 18 -8 3 -13 2 -11 -2 9 -15 -13 -54 -28 -48 -8 3 -15 1
-15 -4 0 -6 -9 -10 -21 -10 -16 0 -19 -4 -14 -20 5 -16 3 -19 -11 -13 -12 4
-15 2 -12 -8 6 -18 -11 -34 -56 -53 -22 -9 -36 -21 -33 -28 2 -7 9 -12 15 -11
6 2 9 -4 5 -13 -4 -11 -13 -14 -29 -10 -14 4 -24 2 -24 -4 0 -5 5 -10 12 -10
9 0 9 -3 0 -12 -7 -7 -12 -19 -12 -28 0 -9 -9 -25 -20 -35 -12 -10 -18 -25
-16 -32 3 -7 2 -13 -2 -13 -5 0 -16 -33 -27 -72 -10 -40 -22 -79 -28 -85 -5
-7 -6 -13 -1 -13 4 0 3 -5 -4 -12 -7 -7 -12 -21 -12 -32 0 -13 -3 -17 -8 -9
-4 6 -7 -12 -8 -40 0 -29 -4 -101 -7 -162 -10 -146 14 -357 46 -407 9 -13 21
-43 28 -68 7 -25 20 -56 28 -70 23 -35 102 -110 118 -110 7 0 18 -9 25 -20 7
-11 17 -20 23 -20 5 0 36 -16 67 -35 58 -34 120 -50 228 -56 148 -10 292 8
340 41 14 10 42 25 62 33 21 9 49 27 63 41 14 15 30 26 34 26 15 0 199 186
215 218 9 17 22 35 29 39 7 4 21 27 32 50 11 22 24 39 28 36 5 -3 7 1 5 8 -2
14 21 56 52 94 9 11 27 54 40 95 13 41 32 93 42 115 16 38 41 260 33 303 -2 9
-9 51 -16 92 -7 41 -18 82 -25 90 -7 8 -16 27 -19 43 -4 15 -24 53 -45 85 -39
60 -151 182 -168 182 -5 0 -20 11 -33 24 -13 12 -47 31 -76 40 -28 10 -53 22
-55 28 -8 22 -275 34 -373 17z m301 -302 c40 -20 114 -87 114 -101 0 -6 10
-27 23 -46 34 -53 46 -98 48 -180 1 -91 -19 -239 -36 -260 -6 -8 -18 -31 -25
-50 -19 -51 -85 -175 -104 -197 -9 -10 -45 -52 -79 -93 -34 -41 -65 -77 -70
-78 -4 -2 -25 -19 -47 -37 -47 -39 -149 -74 -205 -71 -62 5 -178 42 -192 63
-7 10 -17 24 -23 31 -6 6 -8 12 -5 12 3 0 -4 9 -14 19 -11 11 -24 45 -30 78
-6 32 -16 76 -23 98 -20 69 -21 269 -3 375 10 52 22 111 28 130 10 36 152 190
174 190 7 0 17 9 23 20 6 11 27 27 48 35 20 9 46 25 57 35 51 48 267 65 341
27z"/>
<path d="M8500 1105 c0 -19 -4 -43 -9 -53 -5 -9 -19 -82 -32 -162 -12 -80 -26
-152 -30 -160 -5 -8 -20 -85 -34 -170 -14 -85 -29 -162 -32 -170 -8 -19 -42
-200 -49 -267 l-6 -53 81 0 c69 0 82 3 87 18 3 9 9 26 14 37 4 11 18 85 30
165 12 80 28 170 36 201 8 31 14 76 15 100 0 41 1 42 12 19 6 -14 25 -57 43
-96 18 -38 36 -82 39 -97 4 -15 11 -27 15 -27 4 0 17 -28 30 -62 12 -35 29
-70 36 -79 8 -8 14 -20 14 -25 0 -14 44 -119 52 -122 4 -2 10 -19 14 -38 11
-57 41 -42 64 31 11 37 73 176 105 236 8 14 24 52 36 85 12 32 26 62 31 65 5
3 9 9 9 12 0 4 8 26 18 49 10 24 21 53 25 66 5 13 9 22 11 20 2 -2 15 -86 30
-188 15 -102 30 -192 35 -200 4 -9 11 -40 15 -70 14 -102 13 -101 107 -98 l83
3 -3 40 c-1 22 -7 49 -12 60 -5 11 -18 88 -30 170 -11 83 -25 163 -30 180 -6
16 -21 106 -35 200 -14 93 -30 178 -35 187 -5 9 -15 64 -22 122 -15 127 -33
139 -68 46 -14 -38 -68 -156 -105 -230 -12 -25 -28 -64 -35 -87 -7 -24 -17
-43 -21 -43 -4 0 -17 -26 -29 -57 -12 -31 -28 -68 -35 -82 -8 -15 -24 -50 -35
-79 -11 -30 -27 -60 -34 -68 -12 -12 -17 -7 -32 34 -10 26 -21 49 -24 52 -4 3
-17 32 -30 65 -14 33 -30 69 -37 80 -6 11 -22 47 -34 80 -12 33 -28 66 -36 73
-7 7 -13 20 -13 27 0 12 -34 89 -112 253 -25 52 -48 56 -48 7z"/>
<path d="M14822 607 l3 -532 80 0 80 0 3 331 2 332 68 -70 c37 -39 94 -98 127
-133 33 -34 125 -131 205 -215 247 -260 277 -290 294 -290 15 0 16 47 14 518
l-3 517 -87 3 -88 3 0 -323 -1 -323 -97 101 c-53 56 -158 166 -232 243 -74 78
-179 187 -232 242 -54 56 -98 104 -98 109 0 4 -9 10 -20 13 -20 5 -20 2 -18
-526z"/>
<path d="M26678 618 c1 -288 4 -529 7 -535 3 -9 30 -13 85 -13 l80 0 0 335 0
334 33 -33 c17 -18 100 -104 182 -190 83 -87 182 -190 220 -230 39 -39 109
-113 158 -164 48 -51 94 -92 102 -92 13 0 15 65 15 520 l0 521 -87 -3 -88 -3
0 -322 0 -322 -59 62 c-32 34 -111 116 -175 183 -100 104 -381 399 -433 455
-43 46 -43 46 -40 -503z"/>
<path d="M10250 1104 c0 -9 -27 -71 -59 -138 -134 -276 -231 -484 -231 -495 0
-5 -3 -11 -8 -13 -4 -1 -20 -36 -36 -75 -16 -40 -33 -73 -38 -73 -4 0 -8 -5
-8 -11 0 -6 -20 -54 -45 -106 -25 -52 -45 -101 -45 -108 0 -12 17 -15 79 -15
83 0 111 6 111 22 0 6 17 47 39 92 21 44 41 91 45 104 7 22 9 22 210 22 l204
0 23 -62 c12 -35 26 -65 29 -68 4 -3 15 -26 25 -53 21 -55 31 -59 130 -55 83
4 82 3 29 115 -19 39 -34 74 -34 78 0 3 -11 30 -24 58 -41 89 -59 132 -58 140
1 4 -2 7 -7 7 -5 0 -15 17 -22 38 -13 40 -66 159 -103 232 -13 25 -29 63 -36
85 -7 22 -18 47 -25 55 -6 8 -18 31 -25 50 -39 105 -85 190 -102 190 -10 0
-18 -7 -18 -16z m50 -419 c12 -33 25 -64 29 -70 4 -5 19 -38 34 -72 l26 -63
-119 0 c-66 0 -120 1 -120 3 0 10 42 113 53 130 7 12 24 50 37 85 12 35 26 60
30 55 4 -4 17 -35 30 -68z"/>
<path d="M18466 1068 c-10 -29 -33 -93 -50 -143 -17 -49 -33 -92 -37 -95 -3
-3 -16 -36 -29 -75 -12 -38 -26 -74 -30 -80 -5 -5 -20 -47 -35 -92 -14 -46
-31 -85 -36 -88 -5 -4 -9 -16 -10 -28 0 -13 -8 -2 -18 29 -10 28 -23 59 -29
70 -20 39 -40 90 -46 122 -4 17 -11 32 -15 32 -5 0 -18 33 -31 73 -13 39 -28
81 -35 92 -7 11 -23 52 -35 90 -13 39 -27 76 -33 83 -10 13 -178 18 -190 6 -3
-4 0 -16 9 -28 8 -11 19 -39 25 -61 6 -22 24 -67 39 -100 15 -33 31 -75 35
-92 3 -18 11 -33 16 -33 6 0 8 -4 4 -9 -3 -5 -1 -12 4 -15 5 -4 19 -37 32 -74
12 -37 26 -72 30 -78 5 -6 18 -39 29 -74 11 -35 24 -68 29 -74 5 -6 21 -47 37
-91 15 -44 31 -82 34 -85 4 -3 17 -36 30 -75 13 -38 29 -79 36 -90 8 -11 14
-27 14 -37 0 -26 34 -22 48 5 6 12 18 47 28 77 9 30 23 66 30 80 7 14 21 50
30 80 9 30 25 71 35 90 11 19 19 40 19 47 0 18 42 137 50 143 4 3 13 29 21 59
13 52 14 52 23 25 5 -16 12 -31 16 -34 3 -3 17 -39 29 -80 13 -41 27 -80 32
-86 5 -6 20 -49 34 -94 14 -45 29 -88 34 -94 5 -6 18 -40 29 -76 11 -36 27
-78 36 -95 9 -16 16 -38 16 -47 0 -13 8 -18 26 -18 19 0 25 4 20 15 -3 8 -1
15 4 15 6 0 10 7 10 15 0 8 13 43 29 77 16 35 36 83 44 108 8 25 26 68 40 95
14 28 31 69 38 93 7 23 15 42 19 42 4 0 15 24 25 52 9 29 29 80 44 113 16 33
34 78 41 100 7 22 16 42 20 45 3 3 17 34 30 70 13 36 27 70 32 76 6 8 48 119
48 128 0 1 -42 0 -94 -2 l-94 -3 -15 -42 c-8 -23 -18 -52 -22 -64 -3 -13 -10
-23 -14 -23 -4 0 -13 -19 -20 -42 -7 -24 -25 -70 -40 -103 -15 -33 -33 -79
-41 -102 -7 -24 -17 -43 -23 -43 -5 0 -7 -7 -3 -15 3 -8 2 -15 -3 -15 -4 0
-14 -19 -21 -42 -7 -24 -22 -61 -33 -83 l-21 -40 -19 65 c-10 36 -27 83 -37
105 -10 22 -24 60 -31 85 -7 25 -16 47 -19 50 -8 7 -60 165 -60 184 0 8 -4 16
-9 18 -5 2 -20 37 -33 78 -14 42 -31 76 -39 78 -9 1 -21 -17 -33 -50z"/>
<path d="M25780 1109 c0 -12 -29 -77 -130 -284 -37 -77 -71 -151 -75 -165 -4
-14 -13 -32 -19 -40 -7 -8 -25 -46 -41 -85 -16 -38 -35 -76 -42 -83 -7 -7 -13
-18 -13 -24 0 -5 -20 -52 -45 -104 -25 -51 -45 -98 -45 -104 0 -5 -4 -10 -10
-10 -5 0 -9 -3 -8 -7 1 -5 -8 -28 -20 -52 -38 -77 -35 -81 61 -81 45 0 87 4
93 8 6 4 19 30 29 57 10 28 24 57 30 65 7 8 20 36 30 62 l18 48 202 0 202 0
17 -47 c10 -27 33 -81 52 -121 l34 -72 85 0 c101 0 103 4 56 103 -16 34 -45
97 -65 139 -20 42 -36 79 -36 83 0 8 -56 131 -84 185 -13 25 -27 56 -31 70 -8
25 -45 107 -111 246 -19 39 -34 78 -34 87 0 9 -4 17 -9 17 -5 0 -19 27 -31 60
-16 44 -27 60 -41 60 -11 0 -19 -5 -19 -11z m50 -424 c12 -33 35 -88 51 -121
16 -34 29 -67 29 -73 0 -7 -39 -11 -119 -11 l-119 0 30 73 c17 39 36 81 43 92
7 11 21 42 30 68 10 26 21 44 25 40 4 -4 17 -35 30 -68z"/>
<path d="M17044 1072 c-63 -21 -129 -78 -155 -135 -43 -95 -17 -234 54 -292
18 -15 40 -33 50 -41 10 -8 41 -24 70 -35 28 -11 54 -24 57 -28 3 -5 23 -14
45 -21 106 -34 145 -106 113 -213 -16 -54 -55 -77 -131 -77 -32 0 -71 7 -86
15 -32 16 -61 77 -61 126 0 31 -1 31 -40 25 -117 -19 -140 -27 -140 -50 0 -75
64 -185 133 -227 20 -13 37 -27 37 -30 0 -12 89 -29 152 -29 79 0 127 13 182
50 111 75 159 193 136 332 -7 37 -17 68 -23 68 -5 0 -8 3 -4 6 3 4 0 12 -7 19
-7 7 -24 27 -38 44 -32 37 -129 96 -202 121 -66 22 -139 67 -131 80 3 6 1 10
-4 10 -20 0 -13 79 8 98 42 38 52 42 94 42 57 0 104 -24 128 -65 15 -24 25
-32 39 -28 11 3 20 9 20 13 0 3 22 18 50 31 27 13 49 31 50 39 0 9 -26 44 -57
77 -47 50 -68 64 -112 77 -70 20 -162 19 -227 -2z"/>
<path d="M11162 573 l3 -498 183 1 c103 0 192 5 205 11 12 6 55 23 95 38 39
15 72 30 72 34 0 3 18 17 40 31 22 14 40 27 40 30 0 3 16 22 34 42 18 21 43
63 56 95 12 32 27 69 33 82 16 33 16 241 0 272 -7 13 -22 49 -33 80 -11 31
-29 67 -40 80 -56 66 -117 119 -163 140 -29 13 -54 27 -57 30 -12 17 -138 29
-297 29 l-173 0 2 -497z m420 304 c90 -38 165 -145 175 -249 10 -109 -3 -168
-50 -239 -32 -47 -58 -72 -101 -97 -54 -32 -68 -35 -167 -41 l-109 -6 0 330 0
330 107 -6 c64 -3 123 -12 145 -22z"/>
<path d="M12412 573 l3 -498 275 0 275 0 3 82 c3 79 2 83 -20 88 -13 3 -99 5
-191 3 l-167 -3 0 138 0 137 185 0 185 0 0 85 0 85 -187 0 -188 0 3 105 3 105
190 0 189 0 0 85 0 85 -280 0 -280 0 2 -497z"/>
<path d="M14122 573 l3 -498 80 0 80 0 3 498 2 497 -85 0 -85 0 2 -497z"/>
<path d="M19610 570 l0 -500 79 0 c63 0 80 3 85 16 3 9 6 234 6 500 l0 484
-85 0 -85 0 0 -500z"/>
<path d="M20202 988 l3 -83 107 -3 108 -3 2 -412 3 -412 83 -3 82 -3 0 418 0
418 112 0 113 0 3 83 3 82 -311 0 -311 0 3 -82z"/>
<path d="M21250 985 l0 -86 194 3 194 3 -18 -25 c-9 -14 -29 -47 -44 -75 -54
-101 -77 -139 -89 -147 -6 -4 -8 -8 -3 -8 5 0 3 -7 -4 -15 -14 -16 -32 -49
-77 -135 -16 -30 -41 -74 -56 -97 -15 -24 -27 -45 -27 -48 0 -3 -11 -22 -23
-43 -13 -20 -32 -50 -43 -67 -10 -16 -17 -33 -16 -37 1 -5 -2 -8 -7 -8 -5 0
-13 -10 -17 -22 -3 -13 -15 -35 -25 -50 -43 -60 -55 -59 344 -56 l362 3 3 82
c3 79 2 83 -20 88 -13 3 -114 5 -226 3 -111 -2 -202 -1 -201 2 0 3 9 19 19 35
11 17 34 57 51 89 17 33 37 66 45 73 8 8 14 19 14 24 0 5 15 32 32 61 40 65
58 96 97 172 17 33 35 62 39 65 4 4 17 26 30 51 13 25 39 70 57 100 50 81 75
128 75 140 0 7 -108 10 -330 10 l-330 0 0 -85z"/>
<path d="M22362 573 l3 -498 278 -3 278 -2 -3 87 -3 88 -188 0 -187 0 0 138 0
137 185 0 185 0 0 85 0 85 -185 0 -185 0 0 108 0 107 190 -3 190 -3 0 86 0 85
-280 0 -280 0 2 -497z"/>
<path d="M23412 573 l3 -498 73 -3 c46 -2 79 2 88 9 11 9 14 51 14 203 l0 191
22 -35 c13 -19 33 -46 45 -60 13 -14 23 -29 23 -34 0 -4 12 -23 28 -42 15 -18
43 -56 62 -84 36 -53 81 -115 101 -138 7 -9 37 -12 102 -10 108 4 110 8 47 92
-42 55 -70 92 -127 171 -20 28 -56 76 -81 108 -31 41 -39 57 -27 57 38 0 155
90 155 119 0 5 8 17 17 27 26 26 31 188 7 240 -30 66 -78 117 -140 149 -58 29
-62 30 -237 33 l-177 4 2 -499z m344 311 c39 -18 59 -73 52 -139 -7 -59 -51
-102 -112 -109 -75 -10 -105 -11 -106 -3 0 4 0 68 0 143 l0 136 68 -7 c37 -4
81 -13 98 -21z"/>
<path d="M24502 573 l3 -498 225 0 225 0 3 82 c3 99 10 96 -161 91 l-117 -3 0
413 0 412 -90 0 -90 0 2 -497z"/>
<path d="M28092 573 l3 -498 185 2 c147 1 191 4 215 17 17 9 35 16 42 16 15 0
106 39 113 48 3 4 22 20 43 35 51 39 114 124 134 183 8 27 21 55 26 62 6 8 11
64 11 130 0 109 -2 123 -32 195 -48 119 -124 206 -217 249 -27 12 -52 26 -55
29 -12 17 -138 29 -297 29 l-173 0 2 -497z m396 312 c63 -19 137 -88 172 -159
28 -59 38 -173 21 -242 -19 -75 -74 -148 -143 -190 -56 -34 -66 -37 -169 -43
l-109 -6 0 327 0 328 88 0 c50 0 111 -7 140 -15z"/>
</g>
</svg>
